<?xml version="1.0" encoding="utf-8"?>
<!-- Generator: Adobe Illustrator 23.0.3, SVG Export Plug-In . SVG Version: 6.00 Build 0)  -->
<svg version="1.1" id="图层_1" xmlns="http://www.w3.org/2000/svg" xmlns:xlink="http://www.w3.org/1999/xlink" x="0px" y="0px"
	 viewBox="0 0 850.39 377.63" style="enable-background:new 0 0 850.39 377.63;" xml:space="preserve">
<style type="text/css">
	.st0{fill:#2E4EA1;}
	.st1{fill:#231815;}
</style>
<g>
	<path class="st0" d="M282.86,136.51l-19.74-12.83l15.15-17.78l-11.49-9.79l-16.43,19.28l-21.98-14.28
		c-6.15-3.99-13.78-3.99-19.93,0l-21.53,14l-16.56-19.43l-11.49,9.79l15.29,17.94l-32.37,21.03l8.22,12.65l60.86-39.55v64.58v15.09
		v64.58l-48.68-31.64c-1.47-0.96-2.42-2.95-2.42-5.09V197.2h41.46v-15.09h-41.46h-15.09v15.09v27.86c0,7.22,3.56,14.02,9.29,17.74
		l54.48,35.41c3.07,2,6.52,3,9.97,3c3.45,0,6.89-1,9.97-3l54.48-35.41c5.73-3.72,9.29-10.52,9.29-17.74V197.2v-15.09v-27.86
		C292.15,147.03,288.59,140.23,282.86,136.51z M277.05,225.06c0,2.13-0.95,4.13-2.42,5.09l-48.68,31.64V197.2h51.1V225.06z
		 M225.96,182.11v-64.58l48.68,31.64c1.47,0.96,2.42,2.95,2.42,5.09v27.86H225.96z"/>
</g>
<g>
	<path class="st1" d="M348.09,163.36l1.34,29.01l4.53-1.84l5.87,14.93l-9.56,3.69l1.51,31.19l-3.02,6.71L333,259.29l-9.73-12.24
		l12.24-10.06l-1.01-21.63l-13.58,5.2l-5.7-14.93l18.45-7.21l-1.68-36.23l-9.06-0.67l1.34-15.93l7.04,0.5l-1.01-22.64l15.93-0.84
		l1.17,24.82l12.08,0.84l-1.01,15.76L348.09,163.36z M431.11,246.21l8.72-4.53l1.01-38.57l-64.23,3.69l4.86,51.32l-15.76,1.51
		l-5.53-59.54l7.55-8.72l80.84-4.53l8.39,8.22l-1.17,51.99l-4.53,6.71l-12.91,6.37L431.11,246.21z M362.18,145.25l0.5-15.93
		l38.91,1.17l-1.17-9.56l15.93-1.84l1.34,11.91l42.26,1.17l-0.5,15.6L362.18,145.25z M384.15,183.82l-7.55-7.04l-1.85-18.62
		l8.22-8.89l55.34,2.35l6.21,12.41l-12.07,18.62l-7.21,3.52L384.15,183.82z M387.33,249.23l-3.35-26.5l7.55-9.06l30.86-0.84
		l8.22,8.55l-2.01,27l-7.88,7.38l-25.32,0.5L387.33,249.23z M421.55,170.07l2.01-3.19l-32.03-1.17l0.17,2.68L421.55,170.07z
		 M402.26,240.01h10.9l0.84-11.07l-13.25,0.5L402.26,240.01z"/>
</g>
<g>
	<path class="st1" d="M480.63,248.39l-9.39-8.38l6.37-95.93l15.93,1.01l-2.01,28.18l49.81,4.36l7.21,8.38l-3.35,44.28l-6.21,7.04
		L480.63,248.39z M490.52,188.85l-2.85,42.26l42.26-8.05l2.35-30.36L490.52,188.85z"/>
	<path class="st1" d="M635.59,245.54l-18.11-10.73l-53,8.72l-9.22-8.22l4.02-67.75l15.77,0.84l-3.35,57.86l42.1-6.71l3.52-52.16
		l15.93,1.34l-3.69,54.84l14.25,8.55L635.59,245.54z"/>
	<path class="st1" d="M649.01,259.46l-2.85-15.43l55.01-9.73l-1.34-28.85l-48.64,10.23l-9.39-9.22l9.73-50.15l8.55-6.37l46.46,4.36
		l7.21,7.38l3.35,78.99l-6.54,7.88L649.01,259.46z M665.78,166.21l-6.21,31.7l39.41-8.39l-0.84-20.13L665.78,166.21z"/>
</g>
</svg>
