<?xml version="1.0" standalone="no"?><!DOCTYPE svg PUBLIC "-//W3C//DTD SVG 1.1//EN" "http://www.w3.org/Graphics/SVG/1.1/DTD/svg11.dtd"><svg t="1657606078597" class="icon" viewBox="0 0 1024 1024" version="1.1" xmlns="http://www.w3.org/2000/svg" p-id="26533" xmlns:xlink="http://www.w3.org/1999/xlink" width="16" height="16"><defs><style type="text/css">@font-face { font-family: feedback-iconfont; src: url("//at.alicdn.com/t/font_1031158_u69w8yhxdu.woff2?t=1630033759944") format("woff2"), url("//at.alicdn.com/t/font_1031158_u69w8yhxdu.woff?t=1630033759944") format("woff"), url("//at.alicdn.com/t/font_1031158_u69w8yhxdu.ttf?t=1630033759944") format("truetype"); }
</style></defs><path d="M992 672h-24c-4.4 0-8-3.6-8-8V136c0-4.4 3.6-8 8-8h24c17.7 0 32-14.3 32-32s-14.3-32-32-32H580c-2.2 0-4-1.8-4-4 0-16.6-6.7-31.6-17.6-42.4C547.6 6.7 532.6 0 516 0h-8c-33.1 0-60 26.9-60 60 0 1.1-0.4 2.1-1.2 2.8-0.7 0.7-1.7 1.2-2.8 1.2H32C14.3 64 0 78.3 0 96c0 8.8 3.6 16.8 9.4 22.6 5.8 5.8 13.8 9.4 22.6 9.4h24c4.4 0 8 3.6 8 8v528c0 4.4-3.6 8-8 8H32c-17.7 0-32 14.3-32 32 0 8.8 3.6 16.8 9.4 22.6 5.8 5.8 13.8 9.4 22.6 9.4h364.1c10.2 0 17.8 9.5 15.6 19.5L360.4 986c-4.3 19.5 10.5 38 30.5 38 7.3 0 14.2-2.5 19.6-6.9 5.4-4.3 9.4-10.5 10.9-17.6l50.7-228c1-4.7 7.9-3.9 7.9 0.9v220.3c0 17.3 14 31.2 31.2 31.2h1.5c17.3 0 31.2-14 31.2-31.2V772.4c0-4.8 6.9-5.5 7.9-0.9l50.7 228c3.2 14.3 15.8 24.4 30.5 24.5h0.1c20 0 34.9-18.5 30.5-38l-51.3-230.5c-2.2-10 5.4-19.5 15.6-19.5H992c17.7 0 32-14.3 32-32 0-8.8-3.6-16.8-9.4-22.6-5.8-5.8-13.8-9.4-22.6-9.4z m-704-68V420c0-2.2 1.8-4 4-4h56c2.2 0 4 1.8 4 4v184c0 2.2-1.8 4-4 4h-56c-2.2 0-4-1.8-4-4z m128 0V388c0-2.2 1.8-4 4-4h56c2.2 0 4 1.8 4 4v216c0 2.2-1.8 4-4 4h-56c-2.2 0-4-1.8-4-4z m128 0V324c0-2.2 1.8-4 4-4h56c2.2 0 4 1.8 4 4v280c0 2.2-1.8 4-4 4h-56c-2.2 0-4-1.8-4-4z m192 0c0 2.2-1.8 4-4 4h-56c-2.2 0-4-1.8-4-4V228c0-2.2 1.8-4 4-4h56c2.2 0 4 1.8 4 4v376z" p-id="26534"></path></svg>